<svg xmlns="http://www.w3.org/2000/svg" viewBox="0 0 1440 320" preserveAspectRatio="none">
  <path fill="#0ea5e9" fill-opacity="0.3" d="M0,96L48,112C96,128,192,160,288,160C384,160,480,128,576,133.3C672,139,768,181,864,181.3C960,181,1056,139,1152,128C1248,117,1344,139,1392,149.3L1440,160L1440,0L1392,0C1344,0,1248,0,1152,0C1056,0,960,0,864,0C768,0,672,0,576,0C480,0,384,0,288,0C192,0,96,0,48,0L0,0Z">
    <animate attributeName="d" dur="10s" repeatCount="indefinite" values="
      M0,96L48,112C96,128,192,160,288,160C384,160,480,128,576,133.3C672,139,768,181,864,181.3C960,181,1056,139,1152,128C1248,117,1344,139,1392,149.3L1440,160L1440,0L1392,0C1344,0,1248,0,1152,0C1056,0,960,0,864,0C768,0,672,0,576,0C480,0,384,0,288,0C192,0,96,0,48,0L0,0Z;
      M0,64L48,80C96,96,192,128,288,133.3C384,139,480,117,576,112C672,107,768,117,864,138.7C960,160,1056,192,1152,186.7C1248,181,1344,139,1392,117.3L1440,96L1440,0L1392,0C1344,0,1248,0,1152,0C1056,0,960,0,864,0C768,0,672,0,576,0C480,0,384,0,288,0C192,0,96,0,48,0L0,0Z;
      M0,96L48,112C96,128,192,160,288,160C384,160,480,128,576,133.3C672,139,768,181,864,181.3C960,181,1056,139,1152,128C1248,117,1344,139,1392,149.3L1440,160L1440,0L1392,0C1344,0,1248,0,1152,0C1056,0,960,0,864,0C768,0,672,0,576,0C480,0,384,0,288,0C192,0,96,0,48,0L0,0Z"/>
  </path>
  <path fill="#0ea5e9" fill-opacity="0.5" d="M0,192L48,197.3C96,203,192,213,288,229.3C384,245,480,267,576,250.7C672,235,768,181,864,181.3C960,181,1056,235,1152,234.7C1248,235,1344,181,1392,154.7L1440,128L1440,0L1392,0C1344,0,1248,0,1152,0C1056,0,960,0,864,0C768,0,672,0,576,0C480,0,384,0,288,0C192,0,96,0,48,0L0,0Z">
    <animate attributeName="d" dur="8s" repeatCount="indefinite" values="
      M0,192L48,197.3C96,203,192,213,288,229.3C384,245,480,267,576,250.7C672,235,768,181,864,181.3C960,181,1056,235,1152,234.7C1248,235,1344,181,1392,154.7L1440,128L1440,0L1392,0C1344,0,1248,0,1152,0C1056,0,960,0,864,0C768,0,672,0,576,0C480,0,384,0,288,0C192,0,96,0,48,0L0,0Z;
      M0,160L48,170.7C96,181,192,203,288,197.3C384,192,480,160,576,154.7C672,149,768,171,864,181.3C960,192,1056,192,1152,181.3C1248,171,1344,149,1392,138.7L1440,128L1440,0L1392,0C1344,0,1248,0,1152,0C1056,0,960,0,864,0C768,0,672,0,576,0C480,0,384,0,288,0C192,0,96,0,48,0L0,0Z;
      M0,192L48,197.3C96,203,192,213,288,229.3C384,245,480,267,576,250.7C672,235,768,181,864,181.3C960,181,1056,235,1152,234.7C1248,235,1344,181,1392,154.7L1440,128L1440,0L1392,0C1344,0,1248,0,1152,0C1056,0,960,0,864,0C768,0,672,0,576,0C480,0,384,0,288,0C192,0,96,0,48,0L0,0Z"/>
  </path>
</svg>
